HIERARCHY
ROOT hip
{
  OFFSET 0 90.174 2.4664
  CHANNELS 6 Xposition Yposition Zposition Zrotation Xrotation Yrotation
  JOINT abdomen
  {
    OFFSET 0 -1.186 -1.5018
    CHANNELS 6 Xposition Yposition Zposition Zrotation Xrotation Yrotation
    JOINT abdomen2
    {
      OFFSET 0 9.964 0.2134
      CHANNELS 6 Xposition Yposition Zposition Zrotation Xrotation Yrotation
      JOINT chest
      {
        OFFSET 0 13.134 -3.2573
        CHANNELS 6 Xposition Yposition Zposition Zrotation Xrotation Yrotation
        JOINT neck
        {
          OFFSET 0 20.686 -1.6905
          CHANNELS 6 Xposition Yposition Zposition Zrotation Xrotation Yrotation
          JOINT head
          {
            OFFSET 0 7.238 -0.1237
            CHANNELS 6 Xposition Yposition Zposition Zrotation Xrotation Yrotation
            End Site
            {
              OFFSET 0 0 0
            }
          }
        }
        JOINT lCollar
        {
          OFFSET 1.7069 20.075 5.0056
          CHANNELS 6 Xposition Yposition Zposition Zrotation Xrotation Yrotation
          JOINT lShldr
          {
            OFFSET 13.6458 -0.047 -4.849
            CHANNELS 6 Xposition Yposition Zposition Zrotation Xrotation Yrotation
            JOINT lForeArm
            {
              OFFSET 28.3255 -0.9759 2.2888
              CHANNELS 6 Xposition Yposition Zposition Zrotation Xrotation Yrotation
              JOINT lHand
              {
                OFFSET 22.1583 -0.53 10.8316
                CHANNELS 6 Xposition Yposition Zposition Zrotation Xrotation Yrotation
                JOINT lThumb1
                {
                  OFFSET 0.786 0.112 2.5817
                  CHANNELS 6 Xposition Yposition Zposition Zrotation Xrotation Yrotation
                  JOINT lThumb2
                  {
                    OFFSET 0.3601 -0.878 4.2331
                    CHANNELS 6 Xposition Yposition Zposition Zrotation Xrotation Yrotation
                    JOINT lThumb2_End
                    {
                      OFFSET 1.8127 -1.216 2.2227
                      CHANNELS 6 Xposition Yposition Zposition Zrotation Xrotation Yrotation
                      End Site
                      {
                        OFFSET 0.0181 -0.0122 0.0222
                      }
                    }
                  }
                }
                JOINT lCarpal1
                {
                  OFFSET 0.9571 1.114 1.7695
                  CHANNELS 6 Xposition Yposition Zposition Zrotation Xrotation Yrotation
                  JOINT lIndex1
                  {
                    OFFSET 4.1246 0.487 4.1451
                    CHANNELS 6 Xposition Yposition Zposition Zrotation Xrotation Yrotation
                    JOINT lIndex2
                    {
                      OFFSET 3.4052 -1.454 2.7682
                      CHANNELS 6 Xposition Yposition Zposition Zrotation Xrotation Yrotation
                      JOINT lIndex2_End
                      {
                        OFFSET 1.4531 -1.795 1.2713
                        CHANNELS 6 Xposition Yposition Zposition Zrotation Xrotation Yrotation
                        End Site
                        {
                          OFFSET 0.0145 -0.0179 0.0127
                        }
                      }
                    }
                  }
                  JOINT lMid1
                  {
                    OFFSET 5.6954 0.21 2.1184
                    CHANNELS 6 Xposition Yposition Zposition Zrotation Xrotation Yrotation
                    JOINT lMid2
                    {
                      OFFSET 3.9766 -1.54 2.3863
                      CHANNELS 6 Xposition Yposition Zposition Zrotation Xrotation Yrotation
                      JOINT lMid2_End
                      {
                        OFFSET 1.4042 -1.926 1.125
                        CHANNELS 6 Xposition Yposition Zposition Zrotation Xrotation Yrotation
                        End Site
                        {
                          OFFSET 0.014 -0.0193 0.0113
                        }
                      }
                    }
                  }
                }
                JOINT lCarpal2
                {
                  OFFSET 2.0956 0.66 -0.3894
                  CHANNELS 6 Xposition Yposition Zposition Zrotation Xrotation Yrotation
                  JOINT lRing1
                  {
                    OFFSET 5.0395 -0.09 2.4971
                    CHANNELS 6 Xposition Yposition Zposition Zrotation Xrotation Yrotation
                    JOINT lRing2
                    {
                      OFFSET 3.7921 -1.552 1.4806
                      CHANNELS 6 Xposition Yposition Zposition Zrotation Xrotation Yrotation
                      JOINT lRing2_End
                      {
                        OFFSET 1.4655 -1.808 0.9609
                        CHANNELS 6 Xposition Yposition Zposition Zrotation Xrotation Yrotation
                        End Site
                        {
                          OFFSET 0.0147 -0.0181 0.0096
                        }
                      }
                    }
                  }
                  JOINT lPinky1
                  {
                    OFFSET 4.9141 -1.269 0.3591
                    CHANNELS 6 Xposition Yposition Zposition Zrotation Xrotation Yrotation
                    JOINT lPinky2
                    {
                      OFFSET 3.1477 -1.685 0.8462
                      CHANNELS 6 Xposition Yposition Zposition Zrotation Xrotation Yrotation
                      JOINT lPinky2_End
                      {
                        OFFSET 0.8055 -1.585 0.7955
                        CHANNELS 6 Xposition Yposition Zposition Zrotation Xrotation Yrotation
                        End Site
                        {
                          OFFSET 0.0081 -0.0158 0.008
                        }
                      }
                    }
                  }
                }
              }
            }
          }
        }
        JOINT rCollar
        {
          OFFSET -1.7069 20.075 5.0056
          CHANNELS 6 Xposition Yposition Zposition Zrotation Xrotation Yrotation
          JOINT rShldr
          {
            OFFSET -13.6458 -0.047 -4.849
            CHANNELS 6 Xposition Yposition Zposition Zrotation Xrotation Yrotation
            JOINT rForeArm
            {
              OFFSET -28.3255 -0.9759 2.2888
              CHANNELS 6 Xposition Yposition Zposition Zrotation Xrotation Yrotation
              JOINT rHand
              {
                OFFSET -22.1583 -0.53 10.8316
                CHANNELS 6 Xposition Yposition Zposition Zrotation Xrotation Yrotation
                JOINT rThumb1
                {
                  OFFSET -0.786 0.112 2.5817
                  CHANNELS 6 Xposition Yposition Zposition Zrotation Xrotation Yrotation
                  JOINT rThumb2
                  {
                    OFFSET -0.3601 -0.878 4.2331
                    CHANNELS 6 Xposition Yposition Zposition Zrotation Xrotation Yrotation
                    JOINT rThumb2_End
                    {
                      OFFSET -1.8127 -1.216 2.2227
                      CHANNELS 6 Xposition Yposition Zposition Zrotation Xrotation Yrotation
                      End Site
                      {
                        OFFSET -0.0181 -0.0122 0.0222
                      }
                    }
                  }
                }
                JOINT rCarpal1
                {
                  OFFSET -0.9571 1.114 1.7695
                  CHANNELS 6 Xposition Yposition Zposition Zrotation Xrotation Yrotation
                  JOINT rIndex1
                  {
                    OFFSET -4.1246 0.487 4.1451
                    CHANNELS 6 Xposition Yposition Zposition Zrotation Xrotation Yrotation
                    JOINT rIndex2
                    {
                      OFFSET -3.4052 -1.454 2.7682
                      CHANNELS 6 Xposition Yposition Zposition Zrotation Xrotation Yrotation
                      JOINT rIndex2_End
                      {
                        OFFSET -1.4531 -1.795 1.2713
                        CHANNELS 6 Xposition Yposition Zposition Zrotation Xrotation Yrotation
                        End Site
                        {
                          OFFSET -0.0145 -0.018 0.0127
                        }
                      }
                    }
                  }
                  JOINT rMid1
                  {
                    OFFSET -5.6954 0.21 2.1184
                    CHANNELS 6 Xposition Yposition Zposition Zrotation Xrotation Yrotation
                    JOINT rMid2
                    {
                      OFFSET -3.9766 -1.54 2.3863
                      CHANNELS 6 Xposition Yposition Zposition Zrotation Xrotation Yrotation
                      JOINT rMid2_End
                      {
                        OFFSET -1.4042 -1.926 1.125
                        CHANNELS 6 Xposition Yposition Zposition Zrotation Xrotation Yrotation
                        End Site
                        {
                          OFFSET -0.014 -0.0193 0.0113
                        }
                      }
                    }
                  }
                }
                JOINT rCarpal2
                {
                  OFFSET -2.0956 0.66 -0.3894
                  CHANNELS 6 Xposition Yposition Zposition Zrotation Xrotation Yrotation
                  JOINT rRing1
                  {
                    OFFSET -5.0395 -0.09 2.4971
                    CHANNELS 6 Xposition Yposition Zposition Zrotation Xrotation Yrotation
                    JOINT rRing2
                    {
                      OFFSET -3.7921 -1.552 1.4806
                      CHANNELS 6 Xposition Yposition Zposition Zrotation Xrotation Yrotation
                      JOINT rRing2_End
                      {
                        OFFSET -1.4655 -1.808 0.9609
                        CHANNELS 6 Xposition Yposition Zposition Zrotation Xrotation Yrotation
                        End Site
                        {
                          OFFSET -0.0147 -0.0181 0.0096
                        }
                      }
                    }
                  }
                  JOINT rPinky1
                  {
                    OFFSET -4.9141 -1.269 0.3592
                    CHANNELS 6 Xposition Yposition Zposition Zrotation Xrotation Yrotation
                    JOINT rPinky2
                    {
                      OFFSET -3.1477 -1.685 0.8462
                      CHANNELS 6 Xposition Yposition Zposition Zrotation Xrotation Yrotation
                      JOINT rPinky2_End
                      {
                        OFFSET -0.8055 -1.585 0.7955
                        CHANNELS 6 Xposition Yposition Zposition Zrotation Xrotation Yrotation
                        End Site
                        {
                          OFFSET -0.0081 -0.0158 0.008
                        }
                      }
                    }
                  }
                }
              }
            }
          }
        }
      }
    }
  }
  JOINT lThigh
  {
    OFFSET 8.367 -8.2066 0.5982
    CHANNELS 6 Xposition Yposition Zposition Zrotation Xrotation Yrotation
    JOINT lShin
    {
      OFFSET 2.1923 -43.463 -0.4932
      CHANNELS 6 Xposition Yposition Zposition Zrotation Xrotation Yrotation
      JOINT lFoot
      {
        OFFSET 0.7333 -45.8593 -2.6451
        CHANNELS 6 Xposition Yposition Zposition Zrotation Xrotation Yrotation
        End Site
        {
          OFFSET 2.6618 -4.2699 12.3931
        }
      }
    }
  }
  JOINT rThigh
  {
    OFFSET -8.367 -8.2066 0.5982
    CHANNELS 6 Xposition Yposition Zposition Zrotation Xrotation Yrotation
    JOINT rShin
    {
      OFFSET -2.1923 -43.463 -0.4931
      CHANNELS 6 Xposition Yposition Zposition Zrotation Xrotation Yrotation
      JOINT rFoot
      {
        OFFSET -0.7333 -45.8593 -2.6451
        CHANNELS 6 Xposition Yposition Zposition Zrotation Xrotation Yrotation
        End Site
        {
          OFFSET -2.6618 -4.2699 12.3931
        }
      }
    }
  }
}
MOTION
Frames:	4
Frame Time:	0.0333333
-0.651753 75.5388 0.379391 -0 -7.65139 -0 0 -1.186 -1.5018 -0.646753 2.51853 -0.20551 0 9.964 0.2134 -1.28632 5.03926 -0.383076 0 13.134 -3.2573 -1.28632 5.03927 -0.383076 8.88178e-016 20.686 -1.6905 3.26375e-005 32.2289 -1.27214e-006 0 7.238 -0.1237 -3.573e-007 -23.5324 -4.16931e-007 1.7069 20.075 5.0056 10.6321 -7.20383 -5.65358 13.6458 -0.047 -4.849 -51.959 -1.41741 -8.41053 28.3255 -0.9759 2.2888 -16.692 31.739 -59.4585 22.1583 -0.53 10.8316 -14.7108 -8.38374 17.5607 0.786 0.112 2.5817 1.30297e-006 -1.53121e-006 -1.5602e-006 0.3601 -0.878 4.2331 -4.34323e-007 5.10404e-007 5.20067e-007 1.8127 -1.216 2.2227 4.34323e-007 -5.10404e-007 -5.20067e-007 0.9571 1.114 1.7695 3.18055e-015 1.27222e-014 3.18055e-015 4.1246 0.487 4.1451 1.30297e-006 -1.53121e-006 -1.5602e-006 3.4052 -1.454 2.7682 -4.34323e-007 5.10404e-007 5.20067e-007 1.4531 -1.795 1.2713 4.34323e-007 -5.10404e-007 -5.20067e-007 5.6954 0.21 2.1184 1.30297e-006 -1.53121e-006 -1.5602e-006 3.9766 -1.54 2.3863 -4.34323e-007 5.10404e-007 5.20067e-007 1.4042 -1.926 1.125 4.34323e-007 -5.10404e-007 -5.20067e-007 2.0956 0.66 -0.3894 3.18055e-015 1.27222e-014 3.18055e-015 5.0395 -0.09 2.4971 1.30297e-006 -1.53121e-006 -1.5602e-006 3.7921 -1.552 1.4806 -4.34323e-007 5.10404e-007 5.20067e-007 1.4655 -1.808 0.9609 4.34323e-007 -5.10404e-007 -5.20067e-007 4.9141 -1.269 0.3591 1.30297e-006 -1.53121e-006 -1.5602e-006 3.1477 -1.685 0.8462 -4.34323e-007 5.10404e-007 5.20067e-007 0.8055 -1.585 0.7955 4.34323e-007 -5.10404e-007 -5.20067e-007 -1.7069 20.075 5.0056 -11.438 -7.37144 5.02816 -13.6458 -0.047 -4.849 51.7519 -1.587 9.65239 -28.3255 -0.9759 2.2888 15.882 29.1492 56.8595 -22.1583 -0.53 10.8316 17.6203 -6.70652 -15.4781 -0.786 0.112 2.5817 -6.36111e-015 -3.18055e-015 -1.59028e-015 -0.3601 -0.878 4.2331 8.42395e-007 1.10746e-006 -9.6395e-007 -1.8127 -1.216 2.2227 -3.18055e-015 6.36111e-015 3.18055e-015 -0.9571 1.114 1.7695 -3.18055e-015 -3.18055e-015 -1.59028e-015 -4.1246 0.487 4.1451 -0 -9.54166e-015 -0 -3.4052 -1.454 2.7682 8.42395e-007 1.10746e-006 -9.6395e-007 -1.4531 -1.795 1.2713 -3.18055e-015 0 -1.11319e-014 -5.6954 0.21 2.1184 -0 -9.54166e-015 -0 -3.9766 -1.54 2.3863 8.42395e-007 1.10746e-006 -9.6395e-007 -1.4042 -1.926 1.125 -3.18055e-015 0 -1.11319e-014 -2.0956 0.66 -0.3894 -3.18055e-015 -3.18055e-015 -1.59028e-015 -5.0395 -0.09 2.4971 -0 -9.54166e-015 -0 -3.7921 -1.552 1.4806 8.42395e-007 1.10746e-006 -9.6395e-007 -1.4655 -1.808 0.9609 -3.18055e-015 0 -1.11319e-014 -4.9141 -1.269 0.3592 -0 -9.54166e-015 -0 -3.1477 -1.685 0.8462 8.42395e-007 1.10746e-006 -9.6395e-007 -0.8055 -1.585 0.7955 -3.18055e-015 0 -1.11319e-014 8.367 -8.2066 0.5982 118.911 -14.393 169.899 2.1923 -43.463 -0.4932 146.163 22.2788 -103.781 0.7333 -45.8593 -2.6451 5.7937 -5.23094 -42.7533 -8.367 -8.2066 0.5982 -118.904 -14.3771 -169.899 -2.1923 -43.463 -0.4931 -146.122 22.276 103.745 -0.7333 -45.8593 -2.6451 -5.78481 -5.22577 42.7541 
-0.651726 75.4168 0.349547 -0 -7.30096 -0 0 -1.186 -1.5018 -0.646057 2.30858 -0.20798 4.44089e-016 9.964 0.2134 -1.28528 4.61935 -0.390348 0 13.134 -3.2573 -1.28528 4.61935 -0.390348 -8.88178e-016 20.686 -1.6905 6.55098e-005 32.6114 -4.34846e-005 8.88178e-016 7.238 -0.1237 -1.13239e-008 -23.4139 1.23142e-007 1.7069 20.075 5.0056 10.7002 -6.75266 -5.44312 13.6458 -0.047 -4.849 -52.1317 -1.33609 -8.33171 28.3255 -0.9759 2.2888 -16.7274 31.8979 -59.6588 22.1583 -0.53 10.8316 -14.7802 -8.31996 17.7999 0.786 0.112 2.5817 3.70428e-006 6.74342e-007 3.65635e-006 0.3601 -0.878 4.2331 -4.5731e-006 3.46502e-007 -2.61634e-006 1.8127 -1.216 2.2227 3.26987e-006 1.18476e-006 4.17635e-006 0.9571 1.114 1.7695 -0 -6.36111e-015 -0 4.1246 0.487 4.1451 3.70428e-006 6.74342e-007 3.65635e-006 3.4052 -1.454 2.7682 -4.5731e-006 3.46502e-007 -2.61634e-006 1.4531 -1.795 1.2713 3.26987e-006 1.18476e-006 4.17635e-006 5.6954 0.21 2.1184 3.70428e-006 6.74342e-007 3.65635e-006 3.9766 -1.54 2.3863 -4.5731e-006 3.46502e-007 -2.61634e-006 1.4042 -1.926 1.125 3.26987e-006 1.18476e-006 4.17635e-006 2.0956 0.66 -0.3894 -0 -6.36111e-015 -0 5.0395 -0.09 2.4971 3.70428e-006 6.74342e-007 3.65635e-006 3.7921 -1.552 1.4806 -4.5731e-006 3.46502e-007 -2.61634e-006 1.4655 -1.808 0.9609 3.26987e-006 1.18476e-006 4.17635e-006 4.9141 -1.269 0.3591 3.70428e-006 6.74342e-007 3.65635e-006 3.1477 -1.685 0.8462 -4.5731e-006 3.46502e-007 -2.61634e-006 0.8055 -1.585 0.7955 3.26987e-006 1.18476e-006 4.17635e-006 -1.7069 20.075 5.0056 -11.5198 -6.93589 4.79275 -13.6458 -0.047 -4.849 51.9398 -1.50127 9.59771 -28.3255 -0.9759 2.2888 15.9263 29.296 57.0245 -22.1583 -0.53 10.8316 17.7448 -6.60165 -15.7 -0.786 0.112 2.5817 -8.42574e-007 -1.10748e-006 9.63841e-007 -0.3601 -0.878 4.2331 3.18055e-015 -9.54166e-015 3.18055e-015 -1.8127 -1.216 2.2227 -8.42574e-007 -1.10748e-006 9.63841e-007 -0.9571 1.114 1.7695 3.53113e-031 -6.36111e-015 3.18055e-015 -4.1246 0.487 4.1451 -8.42574e-007 -1.10748e-006 9.63841e-007 -3.4052 -1.454 2.7682 1.05934e-030 -9.54166e-015 6.36111e-015 -1.4531 -1.795 1.2713 -8.42574e-007 -1.10748e-006 9.63841e-007 -5.6954 0.21 2.1184 -8.42574e-007 -1.10748e-006 9.63841e-007 -3.9766 -1.54 2.3863 1.05934e-030 -9.54166e-015 6.36111e-015 -1.4042 -1.926 1.125 -8.42574e-007 -1.10748e-006 9.63841e-007 -2.0956 0.66 -0.3894 3.53113e-031 -6.36111e-015 3.18055e-015 -5.0395 -0.09 2.4971 -8.42574e-007 -1.10748e-006 9.63841e-007 -3.7921 -1.552 1.4806 1.05934e-030 -9.54166e-015 6.36111e-015 -1.4655 -1.808 0.9609 -8.42574e-007 -1.10748e-006 9.63841e-007 -4.9141 -1.269 0.3592 -8.42574e-007 -1.10748e-006 9.63841e-007 -3.1477 -1.685 0.8462 1.05934e-030 -9.54166e-015 6.36111e-015 -0.8055 -1.585 0.7955 -8.42574e-007 -1.10748e-006 9.63841e-007 8.367 -8.2066 0.5982 119.384 -14.5498 170.402 2.1923 -43.463 -0.4932 146.164 22.2749 -103.735 0.7333 -45.8593 -2.6451 5.59393 -5.0027 -42.4643 -8.367 -8.2066 0.5982 -119.376 -14.5337 -170.401 -2.1923 -43.463 -0.4931 -146.124 22.2721 103.699 -0.7333 -45.8593 -2.6451 -5.58491 -4.99752 42.4659 
-0.651697 75.2943 0.319523 -0 -6.95055 -0 0 -1.186 -1.5018 -0.645316 2.09879 -0.210429 2.22045e-016 9.964 0.2134 -1.2842 4.1998 -0.397573 -4.44089e-016 13.134 -3.2573 -1.2842 4.1998 -0.397573 0 20.686 -1.6905 4.92246e-005 32.9933 -3.42334e-005 -1.77636e-015 7.238 -0.1237 -6.46528e-009 -23.2954 1.88622e-007 1.7069 20.075 5.0056 10.7665 -6.30139 -5.23338 13.6458 -0.047 -4.849 -52.3045 -1.255 -8.25266 28.3255 -0.9759 2.2888 -16.7623 32.057 -59.8595 22.1583 -0.53 10.8316 -14.8499 -8.25648 18.0391 0.786 0.112 2.5817 4.34503e-007 -5.10427e-007 -5.19949e-007 0.3601 -0.878 4.2331 6.36111e-015 9.54166e-015 -3.18055e-015 1.8127 -1.216 2.2227 4.34503e-007 -5.10427e-007 -5.19949e-007 0.9571 1.114 1.7695 -3.18055e-015 -9.54166e-015 -3.18055e-015 4.1246 0.487 4.1451 4.34503e-007 -5.10427e-007 -5.19949e-007 3.4052 -1.454 2.7682 3.18055e-015 9.54166e-015 -1.59028e-015 1.4531 -1.795 1.2713 4.34503e-007 -5.10427e-007 -5.19949e-007 5.6954 0.21 2.1184 4.34503e-007 -5.10427e-007 -5.19949e-007 3.9766 -1.54 2.3863 3.18055e-015 9.54166e-015 -1.59028e-015 1.4042 -1.926 1.125 4.34503e-007 -5.10427e-007 -5.19949e-007 2.0956 0.66 -0.3894 -3.18055e-015 -9.54166e-015 -3.18055e-015 5.0395 -0.09 2.4971 4.34503e-007 -5.10427e-007 -5.19949e-007 3.7921 -1.552 1.4806 3.18055e-015 9.54166e-015 -1.59028e-015 1.4655 -1.808 0.9609 4.34503e-007 -5.10427e-007 -5.19949e-007 4.9141 -1.269 0.3591 4.34503e-007 -5.10427e-007 -5.19949e-007 3.1477 -1.685 0.8462 3.18055e-015 9.54166e-015 -1.59028e-015 0.8055 -1.585 0.7955 4.34503e-007 -5.10427e-007 -5.19949e-007 -1.7069 20.075 5.0056 -11.5997 -6.50017 4.55818 -13.6458 -0.047 -4.849 52.1278 -1.41573 9.54274 -28.3255 -0.9759 2.2888 15.9702 29.443 57.1899 -22.1583 -0.53 10.8316 17.8695 -6.49731 -15.9221 -0.786 0.112 2.5817 9.69837e-007 -1.23168e-006 -1.22435e-006 -0.3601 -0.878 4.2331 -9.69837e-007 1.23168e-006 1.22435e-006 -1.8127 -1.216 2.2227 9.69837e-007 -1.23168e-006 -1.22435e-006 -0.9571 1.114 1.7695 -3.18055e-015 -3.18055e-015 4.77083e-015 -4.1246 0.487 4.1451 9.69837e-007 -1.23168e-006 -1.22435e-006 -3.4052 -1.454 2.7682 -9.69837e-007 1.23168e-006 1.22435e-006 -1.4531 -1.795 1.2713 9.69837e-007 -1.23168e-006 -1.22435e-006 -5.6954 0.21 2.1184 9.69837e-007 -1.23168e-006 -1.22435e-006 -3.9766 -1.54 2.3863 -9.69837e-007 1.23168e-006 1.22435e-006 -1.4042 -1.926 1.125 9.69837e-007 -1.23168e-006 -1.22435e-006 -2.0956 0.66 -0.3894 -3.18055e-015 -3.18055e-015 4.77083e-015 -5.0395 -0.09 2.4971 9.69837e-007 -1.23168e-006 -1.22435e-006 -3.7921 -1.552 1.4806 -9.69837e-007 1.23168e-006 1.22435e-006 -1.4655 -1.808 0.9609 9.69837e-007 -1.23168e-006 -1.22435e-006 -4.9141 -1.269 0.3592 9.69837e-007 -1.23168e-006 -1.22435e-006 -3.1477 -1.685 0.8462 -9.69837e-007 1.23168e-006 1.22435e-006 -0.8055 -1.585 0.7955 9.69837e-007 -1.23168e-006 -1.22435e-006 8.367 -8.2066 0.5982 119.86 -14.7021 170.906 2.1923 -43.463 -0.4932 146.165 22.2711 -103.69 0.7333 -45.8593 -2.6451 5.39326 -4.7738 -42.1746 -8.367 -8.2066 0.5982 -119.851 -14.686 -170.904 -2.1923 -43.463 -0.4931 -146.125 22.2684 103.654 -0.7333 -45.8593 -2.6451 -5.38406 -4.76865 42.1771 
-0.651669 75.1713 0.289323 -0 -6.60016 -0 0 -1.186 -1.5018 -0.644522 1.88921 -0.212851 0 9.964 0.2134 -1.28306 3.7807 -0.404743 0 13.134 -3.2573 -1.28306 3.7807 -0.404743 8.88178e-016 20.686 -1.6905 -3.6468e-005 33.3762 8.86464e-007 8.88178e-016 7.238 -0.1237 -7.10473e-007 -23.1769 1.66994e-007 1.7069 20.075 5.0056 10.8311 -5.84988 -5.02438 13.6458 -0.047 -4.849 -52.4774 -1.17416 -8.17336 28.3255 -0.9759 2.2888 -16.7965 32.2161 -60.0603 22.1583 -0.53 10.8316 -14.9199 -8.19329 18.2783 0.786 0.112 2.5817 8.82781e-032 3.18055e-015 -1.59028e-015 0.3601 -0.878 4.2331 8.82781e-032 3.18055e-015 -1.59028e-015 1.8127 -1.216 2.2227 -3.18055e-015 0 -0 0.9571 1.114 1.7695 8.82781e-032 3.18055e-015 -1.59028e-015 4.1246 0.487 4.1451 8.82781e-032 3.18055e-015 -1.59028e-015 3.4052 -1.454 2.7682 -3.18055e-015 0 -0 1.4531 -1.795 1.2713 -1.76556e-031 -6.36111e-015 -1.59028e-015 5.6954 0.21 2.1184 8.82781e-032 3.18055e-015 -1.59028e-015 3.9766 -1.54 2.3863 -3.18055e-015 0 -0 1.4042 -1.926 1.125 -1.76556e-031 -6.36111e-015 -1.59028e-015 2.0956 0.66 -0.3894 8.82781e-032 3.18055e-015 -1.59028e-015 5.0395 -0.09 2.4971 8.82781e-032 3.18055e-015 -1.59028e-015 3.7921 -1.552 1.4806 -3.18055e-015 0 -0 1.4655 -1.808 0.9609 -1.76556e-031 -6.36111e-015 -1.59028e-015 4.9141 -1.269 0.3591 8.82781e-032 3.18055e-015 -1.59028e-015 3.1477 -1.685 0.8462 -3.18055e-015 0 -0 0.8055 -1.585 0.7955 -1.76556e-031 -6.36111e-015 -1.59028e-015 -1.7069 20.075 5.0056 -11.6777 -6.06412 4.32444 -13.6458 -0.047 -4.849 52.3158 -1.33037 9.48751 -28.3255 -0.9759 2.2888 16.0137 29.5901 57.3552 -22.1583 -0.53 10.8316 17.9947 -6.39344 -16.1444 -0.786 0.112 2.5817 -8.42995e-007 -1.10742e-006 9.63707e-007 -0.3601 -0.878 4.2331 8.42995e-007 1.10742e-006 -9.63707e-007 -1.8127 -1.216 2.2227 3.18055e-015 -3.18055e-015 -1.59028e-015 -0.9571 1.114 1.7695 -3.18055e-015 -6.36111e-015 3.18055e-015 -4.1246 0.487 4.1451 -8.42995e-007 -1.10742e-006 9.63707e-007 -3.4052 -1.454 2.7682 8.42995e-007 1.10742e-006 -9.63707e-007 -1.4531 -1.795 1.2713 6.36111e-015 -3.18055e-015 -3.18055e-015 -5.6954 0.21 2.1184 -8.42995e-007 -1.10742e-006 9.63707e-007 -3.9766 -1.54 2.3863 8.42995e-007 1.10742e-006 -9.63707e-007 -1.4042 -1.926 1.125 6.36111e-015 -3.18055e-015 -3.18055e-015 -2.0956 0.66 -0.3894 -3.18055e-015 -6.36111e-015 3.18055e-015 -5.0395 -0.09 2.4971 -8.42995e-007 -1.10742e-006 9.63707e-007 -3.7921 -1.552 1.4806 8.42995e-007 1.10742e-006 -9.63707e-007 -1.4655 -1.808 0.9609 6.36111e-015 -3.18055e-015 -3.18055e-015 -4.9141 -1.269 0.3592 -8.42995e-007 -1.10742e-006 9.63707e-007 -3.1477 -1.685 0.8462 8.42995e-007 1.10742e-006 -9.63707e-007 -0.8055 -1.585 0.7955 6.36111e-015 -3.18055e-015 -3.18055e-015 8.367 -8.2066 0.5982 120.339 -14.8503 171.411 2.1923 -43.463 -0.4932 146.167 22.2675 -103.645 0.7333 -45.8593 -2.6451 5.19159 -4.54433 -41.8844 -8.367 -8.2066 0.5982 -120.33 -14.8341 -171.408 -2.1923 -43.463 -0.4931 -146.126 22.2647 103.608 -0.7333 -45.8593 -2.6451 -5.1822 -4.53929 41.8878 
